<?xml version="1.0" encoding="UTF-8" standalone="no"?>
<svg
   xmlns:dc="http://purl.org/dc/elements/1.1/"
   xmlns:cc="http://creativecommons.org/ns#"
   xmlns:rdf="http://www.w3.org/1999/02/22-rdf-syntax-ns#"
   xmlns:svg="http://www.w3.org/2000/svg"
   xmlns="http://www.w3.org/2000/svg"
   xmlns:sodipodi="http://sodipodi.sourceforge.net/DTD/sodipodi-0.dtd"
   xmlns:inkscape="http://www.inkscape.org/namespaces/inkscape"
   xml:space="preserve"
   width="545.27179"
   height="490.84702"
   style="clip-rule:evenodd;fill-rule:evenodd;image-rendering:optimizeQuality;shape-rendering:geometricPrecision;text-rendering:geometricPrecision"
   viewBox="0 0 545271.79 491194.7"
   version="1.1"
   id="svg15"
   sodipodi:docname="Logo_of_the_Ministry_of_Female_Empowerment_and_Child_Protection_of_the_Republic_of_Indonesia.svg"
   inkscape:version="1.0.1 (3bc2e813f5, 2020-09-07)"><metadata
   id="metadata19"><rdf:RDF><cc:Work
       rdf:about=""><dc:format>image/svg+xml</dc:format><dc:type
         rdf:resource="http://purl.org/dc/dcmitype/StillImage" /><dc:title></dc:title></cc:Work></rdf:RDF></metadata><sodipodi:namedview
   pagecolor="#ffffff"
   bordercolor="#666666"
   borderopacity="1"
   objecttolerance="10"
   gridtolerance="10"
   guidetolerance="10"
   inkscape:pageopacity="0"
   inkscape:pageshadow="2"
   inkscape:window-width="1366"
   inkscape:window-height="705"
   id="namedview17"
   showgrid="false"
   fit-margin-top="0"
   fit-margin-left="0"
   fit-margin-right="0"
   fit-margin-bottom="0"
   inkscape:zoom="0.53504413"
   inkscape:cx="274.44782"
   inkscape:cy="217.03398"
   inkscape:window-x="-8"
   inkscape:window-y="-8"
   inkscape:window-maximized="1"
   inkscape:current-layer="svg15" />
 <defs
   id="defs4">
  <style
   type="text/css"
   id="style2">
   <![CDATA[
    .fil1 {fill:#FEFEFE}
    .fil2 {fill:#00ADE0}
    .fil0 {fill:#DEE700}
   ]]>
  </style>
 
  
  
 
   
   
   
  </defs>
 <g
   id="g861"><path
     id="path7"
     style="fill:#dee700;fill-opacity:1;stroke-width:0.999998"
     d="m 272636.62,37199.521 c -150678.99,0 -272827.87692,125970.259 -272827.87692,281361.259 0,65070.06 21428.36492,124971.58 57392.18492,172633.91 26425.999,-54505 67121.032,-98039.39 116045.032,-123419.39 -42263.01,-30755 -69740.78,-80597.41 -69740.78,-136866.4 0,-93430 75738.57,-169170.525 169168.57,-169170.525 93430,0 169170.52,75740.525 169170.52,169170.525 0,56266.99 -27477.82,106107.49 -69738.81,136862.49 48906,25368.99 89590.66,68879.89 116017.66,123354.89 35932.89,-47651.3 57341.37,-107526.39 57341.37,-172565.5 0,-155391 -122148.88,-281361.259 -272827.87,-281361.259 z"
     sodipodi:nodetypes="ssccsssccss" /><path
     class="fil2"
     d="m 364675.62,53631.232 c 4466,1650 8874,3427 13229,5307 -662,-3208 -1010,-6530 -1010,-9934 0,-27023 21906,-48929.000422 48929,-48929.000422 27023,0 48929,21906.000422 48929,48929.000422 0,22270 -14879,41062 -35237,46985 64448,51458.998 105949,132009.998 105949,222571.998 0,61666 -19251,118686 -51874,165051 16744,-24053 26570,-53283 26570,-84812 0,-11793 0,-23493 0,-35285 0,-82086 -66544,-148630 -148630,-148630 -21868,0 -42631,4727 -61327,13210 739,27562 4384,76806 21313,124885 -20227,-3302 -37977,-6605 -37977,-6605 l -10733,-44994 h -20640 l -10733,44994 c 0,0 -17750,3302 -37977,6605 16929,-48078 20574,-97322 21313,-124885 -18696,-8483 -39458,-13210 -61327,-13210 -82085.995,0 -148629.995,66544 -148629.995,148630 0,11793 0,23493 0,35285 0,27603 7532,53445 20644,75592 -28836,-44612 -45650,-98194 -45650,-155831 0,-90468 41410,-170953 105742.995,-222418.998 -20633.995,-5746 -35775.995,-24673 -35775.995,-47138 0,-2886 252,-5713 731,-8461 -478,-151 -956,-312 -1434,-486 -13711,-4990 -21728,-17546 -17907,-28043 3821,-10497.0004 18033,-14961.0004 31743,-9971.0004 3713,1351 7007,3258 9763,5528 7539.995,-4747 16464.995,-7496.000022 26032.995,-7496.000022 27023,0 48929,21906.000422 48929,48929.000422 0,3527 -376,6966 -1086,10281 2202,-960 4413,-1901 6644,-2802 -2310,1049 -4557,2135 -6743,3254 -4448,19870 -20979,35176 -41477,37797 -3014,6293.998 -4617,12883.998 -4617,19671.998 0,44241 68012,80105 151908,80105 83896,0 151908,-35864 151908,-80105 0,-6788 -1604,-13378 -4619,-19672.998 -20496,-2622 -37024,-17925 -41474,-37792 -4237,-2170 -8711,-4212 -13404,-6111 z m -91586,59239.998 c 17783,0 32198,14416 32198,32198 0,17783 -14415,32198 -32198,32198 -17782,0 -32198,-14415 -32198,-32198 0,-17782 14416,-32198 32198,-32198 z"
     id="path11" /></g>
</svg>
